<?xml version="1.0" standalone="no"?>
<!DOCTYPE svg PUBLIC "-//W3C//DTD SVG 20010904//EN"
 "http://www.w3.org/TR/2001/REC-SVG-20010904/DTD/svg10.dtd">
<svg version="1.0" xmlns="http://www.w3.org/2000/svg"
 width="123.000000pt" height="32.000000pt" viewBox="0 0 123.000000 32.000000"
 preserveAspectRatio="xMidYMid meet">

<g transform="translate(0.000000,32.000000) scale(0.100000,-0.100000)"
fill="#000000" stroke="none">
<path d="M570 180 c0 -67 4 -110 10 -110 6 0 10 27 10 60 0 54 2 62 25 72 19
9 29 8 50 -6 22 -14 25 -24 25 -71 0 -32 4 -55 10 -55 7 0 10 23 8 61 -3 54
-6 65 -31 83 -23 17 -32 19 -57 9 l-30 -11 0 39 c0 21 -4 39 -10 39 -6 0 -10
-43 -10 -110z"/>
<path d="M160 207 l0 -77 -77 0 -77 0 34 -35 c34 -35 35 -36 110 -33 l75 3 3
75 c3 75 2 76 -33 110 l-35 34 0 -77z"/>
<path d="M950 246 c0 -13 -6 -27 -12 -30 -10 -5 -10 -7 0 -12 7 -3 12 -25 12
-53 0 -34 5 -53 18 -64 20 -19 52 -23 52 -7 0 6 -7 10 -15 10 -20 0 -35 32
-35 74 0 29 4 36 20 36 11 0 20 5 20 10 0 6 -9 10 -20 10 -15 0 -20 7 -20 25
0 14 -4 25 -10 25 -5 0 -10 -11 -10 -24z"/>
<path d="M415 218 c-11 -6 -25 -19 -32 -27 -15 -19 -17 -177 -3 -186 6 -4 10
12 10 40 0 42 2 45 19 35 33 -17 71 -11 96 15 33 33 32 70 -4 106 -31 31 -54
35 -86 17z m71 -33 c25 -26 26 -52 2 -82 -17 -21 -65 -15 -82 9 -21 30 -20 54
4 78 27 27 46 25 76 -5z"/>
<path d="M793 220 c-45 -18 -58 -95 -23 -130 40 -40 128 -15 131 38 3 40 -3
58 -27 80 -27 23 -45 26 -81 12z m65 -26 c43 -30 20 -104 -33 -104 -53 0 -76
74 -33 104 12 9 27 16 33 16 6 0 21 -7 33 -16z"/>
<path d="M1090 217 c-37 -19 -52 -57 -39 -96 29 -84 149 -62 149 28 0 60 -57
95 -110 68z m70 -27 c38 -38 16 -100 -35 -100 -53 0 -76 74 -33 104 30 21 44
20 68 -4z"/>
</g>
</svg>
